{"asset":{"version":"2.0","generator":"streaming-lab refinement hierarchy"},"scene":0,"scenes":[{"nodes":[0]}],"nodes":[{"mesh":0,"name":"medium"}],"meshes":[{"name":"medium","primitives":[{"attributes":{"POSITION":0},"indices":1,"mode":4}]}],"buffers":[{"byteLength":408,"uri":"data:application/octet-stream;base64,"}],"bufferViews":[{"buffer":0,"byteOffset":0,"byteLength":216,"target":34962},{"buffer":0,"byteOffset":216,"byteLength":192,"target":34963}],"accessors":[{"bufferView":0,"componentType":5126,"count":18,"type":"VEC3","min":[-1.0,-1.0,-1.0],"max":[1.0,1.0,1.0]},{"bufferView":1,"componentType":5123,"count":96,"type":"SCALAR"}]}
