{"asset":{"version":"2.0","generator":"streaming-lab"},"scene":0,"scenes":[{"nodes":[0]}],"nodes":[{"mesh":0,"name":"detail"}],"meshes":[{"name":"detail","primitives":[{"attributes":{"POSITION":0},"indices":1,"mode":4}]}],"buffers":[{"byteLength":264,"uri":"data:application/octet-stream;base64,"}],"bufferViews":[{"buffer":0,"byteOffset":0,"byteLength":144,"target":34962},{"buffer":0,"byteOffset":144,"byteLength":120,"target":34963}],"accessors":[{"bufferView":0,"componentType":5126,"count":12,"type":"VEC3","min":[-0.85065080835204,-0.85065080835204,-0.85065080835204],"max":[0.85065080835204,0.85065080835204,0.85065080835204]},{"bufferView":1,"componentType":5123,"count":60,"type":"SCALAR"}]}
