{"asset":{"version":"2.0","generator":"streaming-lab"},"scene":0,"scenes":[{"nodes":[0]}],"nodes":[{"mesh":0,"name":"medium"}],"meshes":[{"name":"medium","primitives":[{"attributes":{"POSITION":0},"indices":1,"mode":4}]}],"buffers":[{"byteLength":120,"uri":"data:application/octet-stream;base64,"}],"bufferViews":[{"buffer":0,"byteOffset":0,"byteLength":72,"target":34962},{"buffer":0,"byteOffset":72,"byteLength":48,"target":34963}],"accessors":[{"bufferView":0,"componentType":5126,"count":6,"type":"VEC3","min":[-1,-1,-1],"max":[1,1,1]},{"bufferView":1,"componentType":5123,"count":24,"type":"SCALAR"}]}
